<svg xmlns="http://www.w3.org/2000/svg" viewBox="0 0 320 180" width="320" height="180">
  <rect width="320" height="180" fill="#151520"/>
  <g stroke="#2c2c38" stroke-width="1">
    <line x1="40" y1="30" x2="40" y2="150"/><line x1="80" y1="30" x2="80" y2="150"/>
    <line x1="120" y1="30" x2="120" y2="150"/><line x1="160" y1="30" x2="160" y2="150"/>
    <line x1="200" y1="30" x2="200" y2="150"/><line x1="240" y1="30" x2="240" y2="150"/>
    <line x1="40" y1="30" x2="240" y2="30"/><line x1="40" y1="70" x2="240" y2="70"/>
    <line x1="40" y1="110" x2="240" y2="110"/><line x1="40" y1="150" x2="240" y2="150"/>
  </g>
  <circle cx="60" cy="90" r="10" fill="#5ade82"/>
  <circle cx="140" cy="50" r="10" fill="#dc4646"/>
  <circle cx="180" cy="130" r="10" fill="#5ade82"/>
  <circle cx="220" cy="90" r="10" fill="#4696dc"/>
  <path d="M 220 90 L 180 130" stroke="#818cf8" stroke-width="1.5" stroke-dasharray="3 3"/>
  <text x="160" y="20" text-anchor="middle" font-size="14" fill="#a1a1b5" font-family="sans-serif">Качество камней — шумный сенсор</text>
  <text x="160" y="167" text-anchor="middle" font-size="12" fill="#6f6f85" font-family="sans-serif">RockSample(7,8)</text>
</svg>
